<mxfile host="app.diagrams.net" modified="2021-10-13T08:35:25.982Z" agent="5.0 (Windows NT 10.0; Win64; x64) AppleWebKit/537.36 (KHTML, like Gecko) Chrome/94.0.4606.71 Safari/537.36" etag="S72uEWGDP_8TGInCas35" version="15.5.2" type="github">
  <diagram id="LCaj79_49XvRqxPjyAlG" name="Page-1">
    <mxGraphModel dx="1422" dy="1931" grid="1" gridSize="10" guides="1" tooltips="1" connect="1" arrows="1" fold="1" page="1" pageScale="1" pageWidth="827" pageHeight="1169" math="0" shadow="0">
      <root>
        <mxCell id="0" />
        <mxCell id="1" parent="0" />
        <mxCell id="7sBiYPYiwfZofZqAObCQ-16" value="" style="edgeStyle=orthogonalEdgeStyle;rounded=0;orthogonalLoop=1;jettySize=auto;html=1;" edge="1" parent="1" source="7sBiYPYiwfZofZqAObCQ-1" target="7sBiYPYiwfZofZqAObCQ-17">
          <mxGeometry relative="1" as="geometry">
            <mxPoint x="310" y="-180" as="targetPoint" />
          </mxGeometry>
        </mxCell>
        <mxCell id="7sBiYPYiwfZofZqAObCQ-1" value="点击打卡" style="rounded=0;whiteSpace=wrap;html=1;" vertex="1" parent="1">
          <mxGeometry x="250" y="-110" width="120" height="60" as="geometry" />
        </mxCell>
        <mxCell id="7sBiYPYiwfZofZqAObCQ-6" value="" style="edgeStyle=orthogonalEdgeStyle;rounded=0;orthogonalLoop=1;jettySize=auto;html=1;" edge="1" parent="1" source="7sBiYPYiwfZofZqAObCQ-4" target="7sBiYPYiwfZofZqAObCQ-5">
          <mxGeometry relative="1" as="geometry" />
        </mxCell>
        <mxCell id="7sBiYPYiwfZofZqAObCQ-7" value="有" style="edgeLabel;html=1;align=center;verticalAlign=middle;resizable=0;points=[];" vertex="1" connectable="0" parent="7sBiYPYiwfZofZqAObCQ-6">
          <mxGeometry x="-0.3333" y="2" relative="1" as="geometry">
            <mxPoint as="offset" />
          </mxGeometry>
        </mxCell>
        <mxCell id="7sBiYPYiwfZofZqAObCQ-4" value="查询redis是否有记录" style="rhombus;whiteSpace=wrap;html=1;" vertex="1" parent="1">
          <mxGeometry x="240" y="220" width="140" height="80" as="geometry" />
        </mxCell>
        <mxCell id="7sBiYPYiwfZofZqAObCQ-5" value="提示今日已打卡" style="whiteSpace=wrap;html=1;" vertex="1" parent="1">
          <mxGeometry x="500" y="230" width="120" height="60" as="geometry" />
        </mxCell>
        <mxCell id="7sBiYPYiwfZofZqAObCQ-14" value="" style="edgeStyle=orthogonalEdgeStyle;rounded=0;orthogonalLoop=1;jettySize=auto;html=1;" edge="1" parent="1" source="7sBiYPYiwfZofZqAObCQ-11" target="7sBiYPYiwfZofZqAObCQ-13">
          <mxGeometry relative="1" as="geometry" />
        </mxCell>
        <mxCell id="7sBiYPYiwfZofZqAObCQ-11" value="存入redis,失效时间为今日凌晨清空" style="whiteSpace=wrap;html=1;" vertex="1" parent="1">
          <mxGeometry x="250" y="390" width="120" height="60" as="geometry" />
        </mxCell>
        <mxCell id="7sBiYPYiwfZofZqAObCQ-13" value="将打卡记录存入mysql" style="whiteSpace=wrap;html=1;" vertex="1" parent="1">
          <mxGeometry x="250" y="510" width="120" height="60" as="geometry" />
        </mxCell>
        <mxCell id="7sBiYPYiwfZofZqAObCQ-18" style="edgeStyle=orthogonalEdgeStyle;rounded=0;orthogonalLoop=1;jettySize=auto;html=1;entryX=0.5;entryY=0;entryDx=0;entryDy=0;" edge="1" parent="1" source="7sBiYPYiwfZofZqAObCQ-17" target="7sBiYPYiwfZofZqAObCQ-4">
          <mxGeometry relative="1" as="geometry" />
        </mxCell>
        <mxCell id="7sBiYPYiwfZofZqAObCQ-19" value="合格" style="edgeLabel;html=1;align=center;verticalAlign=middle;resizable=0;points=[];" vertex="1" connectable="0" parent="7sBiYPYiwfZofZqAObCQ-18">
          <mxGeometry x="-0.2229" y="3" relative="1" as="geometry">
            <mxPoint as="offset" />
          </mxGeometry>
        </mxCell>
        <mxCell id="7sBiYPYiwfZofZqAObCQ-22" value="" style="edgeStyle=orthogonalEdgeStyle;rounded=0;orthogonalLoop=1;jettySize=auto;html=1;" edge="1" parent="1" source="7sBiYPYiwfZofZqAObCQ-17" target="7sBiYPYiwfZofZqAObCQ-21">
          <mxGeometry relative="1" as="geometry" />
        </mxCell>
        <mxCell id="7sBiYPYiwfZofZqAObCQ-35" value="不合格" style="edgeLabel;html=1;align=center;verticalAlign=middle;resizable=0;points=[];" vertex="1" connectable="0" parent="7sBiYPYiwfZofZqAObCQ-22">
          <mxGeometry x="-0.168" y="2" relative="1" as="geometry">
            <mxPoint as="offset" />
          </mxGeometry>
        </mxCell>
        <mxCell id="7sBiYPYiwfZofZqAObCQ-17" value="校验打卡时间" style="rhombus;whiteSpace=wrap;html=1;" vertex="1" parent="1">
          <mxGeometry x="235" y="40" width="150" height="80" as="geometry" />
        </mxCell>
        <mxCell id="7sBiYPYiwfZofZqAObCQ-21" value="提示打卡超时" style="whiteSpace=wrap;html=1;" vertex="1" parent="1">
          <mxGeometry x="510" y="50" width="120" height="60" as="geometry" />
        </mxCell>
        <mxCell id="7sBiYPYiwfZofZqAObCQ-29" style="edgeStyle=orthogonalEdgeStyle;rounded=0;orthogonalLoop=1;jettySize=auto;html=1;exitX=0.5;exitY=1;exitDx=0;exitDy=0;" edge="1" parent="1" source="7sBiYPYiwfZofZqAObCQ-4" target="7sBiYPYiwfZofZqAObCQ-11">
          <mxGeometry relative="1" as="geometry">
            <mxPoint x="310" y="560" as="sourcePoint" />
          </mxGeometry>
        </mxCell>
        <mxCell id="7sBiYPYiwfZofZqAObCQ-32" value="无" style="edgeLabel;html=1;align=center;verticalAlign=middle;resizable=0;points=[];" vertex="1" connectable="0" parent="7sBiYPYiwfZofZqAObCQ-29">
          <mxGeometry x="-0.2923" y="1" relative="1" as="geometry">
            <mxPoint as="offset" />
          </mxGeometry>
        </mxCell>
      </root>
    </mxGraphModel>
  </diagram>
</mxfile>
